<svg width="16" height="20" viewBox="0 0 16 20" fill="none" xmlns="http://www.w3.org/2000/svg">
<path d="M3.388 15.132C3.93067 15.132 4.41833 15.0147 4.851 14.78C5.28367 14.5453 5.62467 14.208 5.874 13.768C6.13067 13.3207 6.259 12.7853 6.259 12.162V6.97H5.247V10.391H5.225C5.04167 10.0537 4.77033 9.78233 4.411 9.577C4.05167 9.36433 3.65567 9.258 3.223 9.258C2.70967 9.258 2.244 9.37533 1.826 9.61C1.41533 9.84467 1.089 10.1783 0.847 10.611C0.612333 11.0363 0.495 11.5423 0.495 12.129C0.495 12.745 0.616 13.2803 0.858 13.735C1.10733 14.1823 1.44833 14.527 1.881 14.769C2.321 15.011 2.82333 15.132 3.388 15.132ZM3.388 14.263C3.04333 14.263 2.728 14.1787 2.442 14.01C2.16333 13.8413 1.93967 13.603 1.771 13.295C1.60233 12.987 1.518 12.6203 1.518 12.195C1.518 11.7843 1.59867 11.425 1.76 11.117C1.92867 10.809 2.15233 10.567 2.431 10.391C2.717 10.215 3.03233 10.127 3.377 10.127C3.72167 10.127 4.03333 10.2113 4.312 10.38C4.598 10.5487 4.82167 10.7907 4.983 11.106C5.15167 11.414 5.236 11.7807 5.236 12.206C5.236 12.624 5.15167 12.987 4.983 13.295C4.82167 13.603 4.60167 13.8413 4.323 14.01C4.04433 14.1787 3.73267 14.263 3.388 14.263Z" fill="black"/>
<path d="M4.851 14.78L4.66029 14.4284L4.66029 14.4284L4.851 14.78ZM5.874 13.768L5.52705 13.5689L5.52599 13.5708L5.874 13.768ZM6.259 6.97H6.659V6.57H6.259V6.97ZM5.247 6.97V6.57H4.847V6.97H5.247ZM5.247 10.391V10.791H5.647V10.391H5.247ZM5.225 10.391L4.87355 10.582L4.98713 10.791H5.225V10.391ZM4.411 9.577L4.20725 9.92127L4.21254 9.9243L4.411 9.577ZM1.826 9.61L1.63018 9.2612L1.62754 9.2627L1.826 9.61ZM0.847 10.611L0.497891 10.4157L0.496769 10.4178L0.847 10.611ZM0.858 13.735L0.504835 13.923L0.508608 13.9297L0.858 13.735ZM1.881 14.769L1.68573 15.1181L1.68823 15.1195L1.881 14.769ZM2.442 14.01L2.23487 14.3522L2.23881 14.3545L2.442 14.01ZM1.771 13.295L1.42016 13.4871L1.42016 13.4871L1.771 13.295ZM1.76 11.117L1.4091 10.9248L1.40567 10.9314L1.76 11.117ZM2.431 10.391L2.22135 10.0503L2.2174 10.0528L2.431 10.391ZM4.312 10.38L4.10487 10.7222L4.10881 10.7245L4.312 10.38ZM4.983 11.106L4.62676 11.2883L4.63216 11.2981L4.983 11.106ZM4.983 13.295L4.6321 13.1028L4.62867 13.1094L4.983 13.295ZM4.323 14.01L4.11588 13.6678L4.11588 13.6678L4.323 14.01ZM3.388 15.532C3.9903 15.532 4.54465 15.4012 5.04171 15.1316L4.66029 14.4284C4.29201 14.6281 3.87103 14.732 3.388 14.732V15.532ZM5.04171 15.1316C5.54211 14.8602 5.93681 14.4685 6.22201 13.9652L5.52599 13.5708C5.31253 13.9475 5.02522 14.2305 4.66029 14.4284L5.04171 15.1316ZM6.22095 13.9671C6.51896 13.4477 6.659 12.8406 6.659 12.162H5.859C5.859 12.73 5.74237 13.1937 5.52705 13.5689L6.22095 13.9671ZM6.659 12.162V6.97H5.859V12.162H6.659ZM6.259 6.57H5.247V7.37H6.259V6.57ZM4.847 6.97V10.391H5.647V6.97H4.847ZM5.247 9.991H5.225V10.791H5.247V9.991ZM5.57645 10.2C5.35486 9.79227 5.02809 9.46892 4.60946 9.2297L4.21254 9.9243C4.51258 10.0957 4.72848 10.3151 4.87355 10.582L5.57645 10.2ZM4.61473 9.23277C4.19141 8.98224 3.72463 8.858 3.223 8.858V9.658C3.5867 9.658 3.91192 9.74643 4.20727 9.92123L4.61473 9.23277ZM3.223 8.858C2.6461 8.858 2.11222 8.99059 1.63019 9.26121L2.02181 9.95879C2.37578 9.76007 2.77323 9.658 3.223 9.658V8.858ZM1.62754 9.2627C1.15069 9.53519 0.773587 9.92284 0.497897 10.4157L1.1961 10.8063C1.40441 10.4338 1.67998 10.1541 2.02446 9.9573L1.62754 9.2627ZM0.496769 10.4178C0.223314 10.9134 0.095 11.4887 0.095 12.129H0.895C0.895 11.5959 1.00135 11.1593 1.19723 10.8042L0.496769 10.4178ZM0.095 12.129C0.095 12.7978 0.226612 13.4001 0.504901 13.9229L1.2111 13.5471C1.00539 13.1606 0.895 12.6922 0.895 12.129H0.095ZM0.508608 13.9297C0.792772 14.4396 1.18618 14.8387 1.68574 15.1181L2.07626 14.4199C1.71049 14.2153 1.42189 13.9251 1.20739 13.5403L0.508608 13.9297ZM1.68823 15.1195C2.19434 15.3978 2.76446 15.532 3.388 15.532V14.732C2.88221 14.732 2.44766 14.6242 2.07377 14.4185L1.68823 15.1195ZM3.388 13.863C3.11196 13.863 2.86723 13.7964 2.64519 13.6655L2.23881 14.3545C2.58877 14.5609 2.97471 14.663 3.388 14.663V13.863ZM2.64912 13.6678C2.43543 13.5385 2.25939 13.354 2.12184 13.1029L1.42016 13.4871C1.61995 13.852 1.89124 14.1442 2.23488 14.3522L2.64912 13.6678ZM2.12184 13.1029C1.99158 12.865 1.918 12.5673 1.918 12.195H1.118C1.118 12.6734 1.21309 13.109 1.42016 13.4871L2.12184 13.1029ZM1.918 12.195C1.918 11.8373 1.98799 11.5438 2.11433 11.3026L1.40567 10.9314C1.20935 11.3062 1.118 11.7314 1.118 12.195H1.918ZM2.11084 11.3091C2.2491 11.0566 2.42709 10.8666 2.6446 10.7292L2.2174 10.0528C1.87758 10.2674 1.60823 10.5614 1.40916 10.9249L2.11084 11.3091ZM2.64064 10.7317C2.86187 10.5955 3.1043 10.527 3.377 10.527V9.727C2.96036 9.727 2.57213 9.83448 2.22136 10.0503L2.64064 10.7317ZM3.377 10.527C3.65307 10.527 3.89236 10.5936 4.10488 10.7222L4.51912 10.0378C4.1743 9.82909 3.79026 9.727 3.377 9.727V10.527ZM4.10881 10.7245C4.32506 10.8521 4.4977 11.0357 4.6269 11.2882L5.3391 10.9238C5.14563 10.5457 4.87094 10.2453 4.51519 10.0355L4.10881 10.7245ZM4.63216 11.2981C4.76242 11.536 4.836 11.8337 4.836 12.206H5.636C5.636 11.7276 5.54091 11.292 5.33384 10.9139L4.63216 11.2981ZM4.836 12.206C4.836 12.5696 4.76295 12.864 4.63216 13.1029L5.33384 13.4871C5.54038 13.11 5.636 12.6784 5.636 12.206H4.836ZM4.62867 13.1094C4.49882 13.3573 4.32787 13.5395 4.11588 13.6678L4.53012 14.3522C4.87546 14.1432 5.14451 13.8487 5.33733 13.4806L4.62867 13.1094ZM4.11588 13.6678C3.90336 13.7964 3.66407 13.863 3.388 13.863V14.663C3.80126 14.663 4.1853 14.5609 4.53012 14.3522L4.11588 13.6678Z" fill="black"/>
<path d="M6.4813 3.27249L6.44302 9.73101C6.31532 9.70134 6.14817 9.66172 5.9687 9.61711C5.64133 9.53573 5.28539 9.44072 5.05004 9.36049V0.199975H5.05006H5.05311H5.05616H5.05923H5.0623H5.06538H5.06847H5.07157H5.07467H5.07778H5.08091H5.08404H5.08717H5.09032H5.09347H5.09663H5.0998H5.10298H5.10616H5.10935H5.11255H5.11576H5.11897H5.12219H5.12542H5.12866H5.13191H5.13516H5.13842H5.14168H5.14496H5.14824H5.15153H5.15482H5.15813H5.16144H5.16475H5.16808H5.17141H5.17474H5.17809H5.18144H5.1848H5.18817H5.19154H5.19492H5.1983H5.20169H5.20509H5.2085H5.21191H5.21533H5.21876H5.22219H5.22563H5.22907H5.23252H5.23598H5.23944H5.24291H5.24639H5.24987H5.25336H5.25685H5.26035H5.26386H5.26737H5.27089H5.27442H5.27795H5.28148H5.28502H5.28857H5.29213H5.29569H5.29925H5.30282H5.3064H5.30998H5.31357H5.31716H5.32076H5.32436H5.32797H5.33159H5.33521H5.33883H5.34246H5.3461H5.34974H5.35338H5.35703H5.36069H5.36435H5.36802H5.37169H5.37537H5.37905H5.38273H5.38642H5.39012H5.39382H5.39752H5.40123H5.40495H5.40867H5.41239H5.41612H5.41985H5.42359H5.42733H5.43107H5.43482H5.43858H5.44234H5.4461H5.44987H5.45364H5.45741H5.46119H5.46498H5.46877H5.47256H5.47635H5.48015H5.48396H5.48776H5.49158H5.49539H5.49921H5.50303H5.50686H5.51069H5.51452H5.51836H5.5222H5.52604H5.52989H5.53374H5.5376H5.54145H5.54531H5.54918H5.55305H5.55692H5.56079H5.56467H5.56855H5.57243H5.57632H5.58021H5.5841H5.58799H5.59189H5.59579H5.5997H5.6036H5.60751H5.61142H5.61534H5.61926H5.62318H5.6271H5.63102H5.63495H5.63888H5.64281H5.64675H5.65069H5.65463H5.65857H5.66251H5.66646H5.67041H5.67436H5.67831H5.68226H5.68622H5.69018H5.69414H5.6981H5.70207H5.70603H5.71H5.71397H5.71794H5.72192H5.72589H5.72987H5.73385H5.73783H5.74181H5.74579H5.74978H5.75376H5.75775H5.76174H5.76573H5.76972H5.77371H5.77771H5.7817H5.7857H5.78969H5.79369H5.79769H5.80169H5.80569H5.80969H5.8137H5.8177H5.82171H5.82571H5.82972H5.83372H5.83773H5.84174H5.84575H5.84976H5.85377H5.85778H5.86179H5.8658H5.86981H5.87382H5.87784H5.88185H5.88586H5.88988H5.89389H5.8979H5.90192H5.90593H5.90994H5.91396H5.91797H5.92198H5.926H5.93001H5.93402H5.93804H5.94205H5.94606H5.95007H5.95408H5.9581H5.96211H5.96612H5.97013H5.97414H5.97814H5.98215H5.98616H5.99017H5.99417H5.99818H6.00218H6.00619H6.01019H6.01419H6.01819H6.02219H6.02619H6.03019H6.03419H6.03818H6.04218H6.04617H6.05016H6.05415H6.05814H6.06213H6.06612H6.0701H6.07409H6.07807H6.08205H6.08603H6.09001H6.09399H6.09796H6.10193H6.1059H6.10987H6.11384H6.11781H6.12177H6.12573H6.12969H6.13365H6.13761H6.14156H6.14552H6.14947H6.15341H6.15736H6.1613H6.16524H6.16918H6.17312H6.17705H6.18099H6.18491H6.18884H6.19277H6.19669H6.20061H6.20452H6.20844H6.21235H6.21626H6.22016H6.22407H6.22797H6.23186H6.23576H6.23965H6.24354H6.24743H6.25131H6.25519H6.25906H6.26294H6.26681H6.27067H6.27454H6.2784H6.28225H6.28611H6.28996H6.2938H6.29765H6.30149H6.30532H6.30916H6.31298H6.31681H6.32063H6.32445H6.32826H6.33207H6.33588H6.33968H6.34348H6.34728H6.35107H6.35485H6.35864H6.36242H6.36619H6.36996H6.37373H6.37749H6.38125H6.385H6.38875H6.39249H6.39623H6.39997H6.4037H6.40743H6.41115H6.41487H6.41858H6.42229H6.42599H6.42969H6.43339H6.43708H6.44076H6.44444H6.44812H6.45179H6.45545H6.45911H6.46277H6.46642H6.47006H6.4737H6.47734H6.48096H6.48129V0.200248V0.200906V0.201564V0.202221V0.202879V0.203536V0.204192V0.204849V0.205505V0.206161V0.206817V0.207472V0.208127V0.208782V0.209437V0.210091V0.210745V0.211399V0.212052V0.212706V0.213359V0.214012V0.214664V0.215316V0.215969V0.21662V0.217272V0.217923V0.218574V0.219225V0.219876V0.220526V0.221176V0.221826V0.222476V0.223125V0.223774V0.224423V0.225072V0.22572V0.226369V0.227017V0.227665V0.228312V0.228959V0.229607V0.230254V0.2309V0.231547V0.232193V0.232839V0.233485V0.23413V0.234776V0.235421V0.236066V0.236711V0.237355V0.237999V0.238644V0.239287V0.239931V0.240575V0.241218V0.241861V0.242504V0.243147V0.243789V0.244431V0.245074V0.245716V0.246357V0.246999V0.24764V0.248281V0.248922V0.249563V0.250204V0.250844V0.251484V0.252124V0.252764V0.253404V0.254043V0.254683V0.255322V0.255961V0.2566V0.257238V0.257877V0.258515V0.259153V0.259791V0.260429V0.261067V0.261704V0.262342V0.262979V0.263616V0.264253V0.264889V0.265526V0.266162V0.266798V0.267434V0.26807V0.268706V0.269342V0.269977V0.270612V0.271248V0.271883V0.272517V0.273152V0.273787V0.274421V0.275056V0.27569V0.276324V0.276958V0.277591V0.278225V0.278859V0.279492V0.280125V0.280758V0.281391V0.282024V0.282657V0.28329V0.283922V0.284554V0.285187V0.285819V0.286451V0.287083V0.287715V0.288346V0.288978V0.289609V0.290241V0.290872V0.291503V0.292134V0.292765V0.293396V0.294026V0.294657V0.295288V0.295918V0.296548V0.297179V0.297809V0.298439V0.299069V0.299698V0.300328V0.300958V0.301587V0.302217V0.302846V0.303476V0.304105V0.304734V0.305363V0.305992V0.306621V0.30725V0.307879V0.308507V0.309136V0.309764V0.310393V0.311021V0.31165V0.312278V0.312906V0.313534V0.314162V0.31479V0.315418V0.316046V0.316674V0.317301V0.317929V0.318557V0.319184V0.319812V0.320439V0.321067V0.321694V0.322322V0.322949V0.323576V0.324203V0.32483V0.325457V0.326085V0.326712V0.327339V0.327965V0.328592V0.329219V0.329846V0.330473V0.3311V0.331726V0.332353V0.33298V0.333606V0.334233V0.33486V0.335486V0.336113V0.336739V0.337366V0.337992V0.338619V0.339245V0.339872V0.340498V0.341124V0.341751V0.342377V0.343004V0.34363V0.344256V0.344883V0.345509V0.346135V0.346762V0.347388C6.48129 0.352551 6.48129 0.357716 6.48128 0.362885C6.48114 0.470543 6.481 0.579608 6.54094 0.701602C6.75687 1.15827 7.02319 1.48192 7.59327 1.819C8.14814 2.14709 9.00036 2.49365 10.3884 3.00683C12.1566 3.66792 13.2779 4.18824 13.9556 4.6664C14.6225 5.13695 14.8287 5.54319 14.83 5.98186C14.8258 6.06591 14.7937 6.17703 14.7256 6.31418C14.6575 6.45146 14.5589 6.60369 14.4356 6.765C14.2854 6.96167 14.1024 7.16658 13.9022 7.36798C14.0396 7.20002 14.1508 7.03193 14.22 6.86654C14.4438 6.35421 14.2267 5.78088 13.8046 5.29396C13.3761 4.79968 12.7004 4.34559 11.8822 4.03594C11.2246 3.77381 10.1338 3.53415 9.11517 3.36046C8.09542 3.18659 7.11697 3.07367 6.68129 3.07367H6.48247L6.4813 3.27249Z" fill="black" stroke="black" stroke-width="0.4"/>
</svg>
